<svg version="1.2" xmlns="http://www.w3.org/2000/svg" viewBox="0 0 461 461" width="461" height="461"><style>.a{fill:#298736}</style><path class="a" d="m456.2 401.5c6.1 6.1 6.1 15.9 0 22l-32.7 32.7c-2.9 2.9-6.9 4.6-11 4.6-4.1 0-8.1-1.7-11-4.6l-171.1-171.1-171.1 171.1c-2.9 2.9-6.9 4.6-11 4.6-4.2 0-8.1-1.7-11-4.6l-32.7-32.7c-6.1-6.1-6.1-15.9 0-22l171.1-171.1-171.1-171.1c-6.1-6.1-6.1-15.9 0-22l32.7-32.7c2.9-2.9 6.8-4.6 11-4.6 4.1 0 8 1.7 11 4.6l171.1 171.1 171.1-171.1c2.9-2.9 6.9-4.6 11-4.6 4.1 0 8.1 1.7 11 4.6l32.7 32.7c6.1 6.1 6.1 15.9 0 22l-171.1 171.1z"/></svg>